<svg width="68" height="68" viewBox="0 0 68 68" fill="none" xmlns="http://www.w3.org/2000/svg">
<path d="M22.0264 12.1428L12.747 20.796C5.88041 27.1992 5.50476 37.9565 11.9079 44.823L21.698 55.3216C28.1012 62.1882 38.8584 62.5638 45.725 56.1607L55.0044 47.5075C61.871 41.1043 62.2466 30.347 55.8435 23.4805L46.0534 12.9819C39.6502 6.11532 28.893 5.73967 22.0264 12.1428Z" fill="#535662"/>
<path d="M22.7084 12.8742L13.429 21.5274C6.96631 27.5539 6.61275 37.6784 12.6393 44.141L22.4294 54.6396C28.4559 61.1023 38.5803 61.4558 45.043 55.4293L54.3224 46.7761C60.7851 40.7496 61.1386 30.6251 55.1121 24.1625L45.322 13.6639C39.2955 7.20123 29.171 6.84768 22.7084 12.8742Z" stroke="#100B16" stroke-width="2"/>
</svg>
